<svg width="25" height="25" viewBox="0 0 25 25" fill="none" xmlns="http://www.w3.org/2000/svg">
<path d="M16.3056 11.7245L12.3085 11.5724L12.4605 7.57531C12.4807 7.0454 12.0921 6.56057 11.4993 6.53802C10.9065 6.51547 10.4821 6.96936 10.462 7.49928L10.2719 12.4957C10.2517 13.0256 10.6404 13.5104 11.2331 13.533L16.2295 13.7231C16.8223 13.7456 17.2467 13.2917 17.2668 12.7618C17.287 12.2319 16.8984 11.7471 16.3056 11.7245Z" fill="#333333"/>
<path d="M12.5 0.5C5.9 0.5 0.5 5.9 0.5 12.5C0.5 19.1 5.9 24.5 12.5 24.5C19.1 24.5 24.5 19.1 24.5 12.5C24.5 5.9 19.1 0.5 12.5 0.5ZM12.5 22.5C7.1 22.5 2.5 17.9 2.5 12.5C2.5 7.1 7.1 2.5 12.5 2.5C17.9 2.5 22.5 7.1 22.5 12.5C22.5 17.9 17.9 22.5 12.5 22.5Z" fill="#333333"/>
</svg>
