<svg width="36" height="17" viewBox="0 0 36 17" fill="none" xmlns="http://www.w3.org/2000/svg">
<path d="M17.9668 4C19.6569 4 20.9527 4.23944 21.9668 5C23.1499 5.76056 23.9668 6.73239 23.9668 8C23.9668 9.26761 23.1499 11.2394 21.9668 12C20.9527 12.7606 19.6569 13 17.9668 13C16.2767 13 14.9809 12.8873 13.9668 12C12.9527 11.2394 11.9668 9.26761 11.9668 8C11.9668 6.73239 12.9527 5.76056 13.9668 5C14.9809 4.23944 16.2767 4 17.9668 4ZM19.9668 7C19.4598 6.61972 18.8119 6 17.9668 6C17.1217 6 16.4738 6.61972 15.9668 7C15.2907 7.50704 14.9668 8.3662 14.9668 9C14.9668 9.6338 15.2907 9.61972 15.9668 10C16.4738 10.3803 17.1217 11 17.9668 11C18.8119 11 19.4598 10.507 19.9668 10C20.4738 9.61972 20.9668 9.6338 20.9668 9C20.9668 8.3662 20.6429 7.50704 19.9668 7Z" fill="#333333"/>
<path d="M0.967056 9C0.806554 8.73438 0.806554 8.26562 0.967056 8C2.57208 5.60938 5.23852 3.46094 7.96706 2C10.6956 0.671875 14.5965 0 17.9671 0C21.1771 0 25.2385 0.671875 27.9671 2C30.6956 3.32812 33.2015 5.47656 34.9671 8C34.9671 8 34.8066 8 34.9671 8C35.1276 8.26562 35.2881 8.73438 34.9671 9C33.362 11.3906 30.6956 13.6719 27.9671 15C25.2385 16.3281 21.1771 17 17.9671 17C14.757 17 10.6956 16.3281 7.96706 15C5.23852 13.6719 2.73258 11.3906 0.967056 9C0.967056 8.86719 0.967056 9 0.967056 9ZM9.96706 4C7.88053 5.0625 5.25107 7.14062 3.96706 9C5.41158 10.8594 7.72003 11.9375 9.96706 13C12.2141 14.1953 15.2385 15 17.9671 15C20.6956 15 23.72 14.0625 25.9671 13C28.0536 11.9375 30.683 10.7266 31.9671 9C30.683 7.14062 28.0536 5.0625 25.9671 4C23.72 2.80469 20.6956 2 17.9671 2C15.078 1.86719 12.3746 2.80469 9.96706 4Z" fill="#333333"/>
</svg>
