<svg width="44" height="45" viewBox="0 0 44 45" fill="none" xmlns="http://www.w3.org/2000/svg">
<path fill-rule="evenodd" clip-rule="evenodd" d="M19.9999 31.8889H22.9999C22.9999 31.8889 22.75 32.1377 22.9999 31.8889C23.2331 31.6556 22.9999 29.8889 22.9999 29.8889C22.9999 29.8889 23.0004 28.1843 23.9999 27.8889C24.9827 27.5934 26.6673 31.0337 27.9999 31.8889C29.016 32.542 29.9999 31.8889 29.9999 31.8889H33.9999C33.9999 31.8889 35.8827 31.2572 34.9999 29.8889C34.9333 29.78 34.1487 28.7548 31.9999 26.8889C29.7511 24.9452 29.2847 24.2476 31.9999 20.8889C33.649 18.8363 35.1998 17.4331 34.9999 16.8889C34.8 16.3757 33.9999 16.8889 33.9999 16.8889H28.9999C28.9999 16.8889 29.2164 16.7645 28.9999 16.8889C28.7833 17.0133 28.9999 16.8889 28.9999 16.8889C28.9999 16.8889 26.8494 19.5361 25.9999 20.8889C24.2009 23.7344 24.2831 23.0755 23.9999 22.8889C23.3169 22.4846 22.9999 21.7752 22.9999 20.8889C22.9999 18.1366 24.3158 16.1843 22.9999 15.8889C22.5668 15.7956 21.116 15.8889 19.9999 15.8889C18.5673 15.8733 17.6995 15.5623 16.9999 15.8889C16.5335 16.091 16.7833 16.8733 16.9999 16.8889C17.2664 16.92 17.6834 16.4846 17.9999 16.8889C18.4163 17.4176 17.9999 19.8889 17.9999 19.8889C17.9999 19.8889 18.7828 22.4846 17.9999 22.8889C17.4502 23.1688 15.599 23.4701 13.9999 20.8889C13.1837 19.5672 12.9999 16.8889 12.9999 16.8889C12.9999 16.8889 13.2164 17.0288 12.9999 16.8889C12.75 16.7178 11.9999 16.8889 11.9999 16.8889H7.99989C7.99989 16.8889 7.19978 16.6556 6.99989 16.8889C6.81666 17.091 6.99989 16.8889 6.99989 16.8889C6.99989 16.8889 10.6018 24.5924 13.9999 27.8889C17.0815 30.8899 19.9999 31.8889 19.9999 31.8889Z" fill="#3D68B0"/>
</svg>
